<svg xmlns="http://www.w3.org/2000/svg" width="29.532" height="24" viewBox="0 0 29.532 24">
  <path id="Icon_metro-twitter" data-name="Icon metro-twitter" d="M32.1,7.658a12.114,12.114,0,0,1-3.48.954A6.077,6.077,0,0,0,31.287,5.26a12.129,12.129,0,0,1-3.848,1.47,6.065,6.065,0,0,0-10.324,5.526A17.2,17.2,0,0,1,4.627,5.926,6.065,6.065,0,0,0,6.5,14.015a6.034,6.034,0,0,1-2.744-.758c0,.025,0,.051,0,.076a6.063,6.063,0,0,0,4.86,5.941,6.069,6.069,0,0,1-2.736.1,6.065,6.065,0,0,0,5.66,4.208A12.156,12.156,0,0,1,4.016,26.18,12.289,12.289,0,0,1,2.571,26.1a17.149,17.149,0,0,0,9.288,2.722C23,28.817,29.1,19.585,29.1,11.578q0-.394-.018-.784A12.308,12.308,0,0,0,32.1,7.658Z" transform="translate(-2.571 -4.817)" fill="#fff"/>
</svg>
