<svg xmlns="http://www.w3.org/2000/svg" width="108.274" height="35" viewBox="0 0 108.274 35">
  <path id="Icon_payment-visa" data-name="Icon payment-visa" d="M20.81,22.514c-.424-2.17-2.062-2.855-3.965-2.855H2.675l-.1.685C12.3,22.83,20.282,28.117,23.878,38.109Zm3.965,20.3-.9-4.706A21.225,21.225,0,0,0,12.455,26.583l7.137,26.964h9.253l13.8-33.89H33.339L24.775,42.815ZM49.466,53.6l5.495-33.939H46.187L40.687,53.6ZM73.413,19.076c-8.671,0-14.748,4.6-14.8,11.206-.054,4.867,4.335,7.561,7.665,9.2,3.438,1.638,4.547,2.748,4.547,4.227,0,2.274-2.748,3.28-5.233,3.28a16.633,16.633,0,0,1-8.247-1.745l-1.164-.581-1.217,7.612a25.57,25.57,0,0,0,9.78,1.8c9.2.054,15.176-4.547,15.28-11.577,0-3.861-2.378-6.767-7.4-9.2-3.064-1.53-4.914-2.644-4.914-4.227,0-1.426,1.584-2.909,5.022-2.909a14.582,14.582,0,0,1,6.555,1.272l.794.42L81.29,20.5a21.81,21.81,0,0,0-7.877-1.428Zm23.581.583c-2.116,0-3.7.636-4.6,2.855L79.386,53.6h9.2c1.483-4.174,1.854-5.076,1.854-5.076h11.206s.266,1.164,1.056,5.076h8.143l-7.083-33.939H96.994ZM92.921,41.547s.74-1.958,3.492-9.464c-.054.054.74-1.958,1.164-3.225l.632,2.909c1.638,8.089,2.012,9.78,2.012,9.78h-7.3Z" transform="translate(-2.571 -19.076)" fill="#fff"/>
</svg>
