<svg xmlns="http://www.w3.org/2000/svg" width="34.528" height="35" viewBox="0 0 34.528 35">
  <path id="Icon_simple-paypal" data-name="Icon simple-paypal" d="M10.081,35H5.554a1.343,1.343,0,0,1-1.365-1.721l.217-.983h3.02a2.328,2.328,0,0,0,2.161-1.724l1.552-6.7A2.332,2.332,0,0,1,13.3,22.155h1.288q8.288,0,12.892-3.413A10.619,10.619,0,0,0,32.086,9.8a8.565,8.565,0,0,0-.857-4.067c0-.023-.023-.045-.023-.067l.2.109a6.742,6.742,0,0,1,2.5,2.645,8.5,8.5,0,0,1,.872,4.07,10.592,10.592,0,0,1-4.614,8.947c-3.062,2.253-7.372,3.389-12.883,3.389H15.959a2.33,2.33,0,0,0-2.164,1.73l-1.553,6.716A2.31,2.31,0,0,1,10.1,34.974Zm-3.9-3.93H1.649A1.345,1.345,0,0,1,.284,29.349L6.661,1.724A2.326,2.326,0,0,1,8.821,0h9.428a29.706,29.706,0,0,1,5.32.421,11.181,11.181,0,0,1,3.914,1.444,6.722,6.722,0,0,1,2.475,2.651A8.778,8.778,0,0,1,30.81,8.6,10.53,10.53,0,0,1,26.2,17.519c-3.062,2.276-7.373,3.392-12.886,3.392H12.022a2.324,2.324,0,0,0-2.155,1.7L8.319,29.308a2.326,2.326,0,0,1-2.166,1.709ZM17.036,5.74H15.557A2.322,2.322,0,0,0,13.4,7.458L12.042,13.32A1.34,1.34,0,0,0,13.4,15.04h1.117A9.526,9.526,0,0,0,20.2,13.551,4.965,4.965,0,0,0,22.238,9.3a2.991,2.991,0,0,0-1.312-2.683,7.073,7.073,0,0,0-3.917-.882h.028Z" transform="translate(-0.241)" fill="#fff"/>
</svg>
